<svg xmlns="http://www.w3.org/2000/svg" data-name="Layer 1" viewBox="0 0 128 128"><path fill="#395062" d="M124.78207,35.05325a3.05763,3.05763,0,0,0-2.50239-1.27778H36.05681L33.54112,22.91625A3.076,3.076,0,0,0,30.531,20.5228H6.28632a3.65879,3.65879,0,0,0,0,7.31759H27.17213L39.95379,83.04544a3.07552,3.07552,0,0,0,3.00946,2.39315h64.36852a3.08345,3.08345,0,0,0,2.93475-2.12483l14.94792-45.48413A3.05579,3.05579,0,0,0,124.78207,35.05325ZM104.27419,78.12131H46.32595L44.59839,70.6569h62.13073Zm4.85668-14.78214h-66.229l-1.72756-7.46441h70.41214Zm4.86045-14.7817H39.47775l-1.72756-7.46471H116.4437Z"/><path fill="#1487c5" d="M101.2154,99.49668a5.94881,5.94881,0,0,1-9.58819-4.7066V90.99465a9.18453,9.18453,0,1,0,14.39916,4.78346Z"/><path fill="#1487c5" d="M95.00225 94.79008a2.57463 2.57463 0 0 0 4.14822 2.03734L107.901 90.0619H95.00225zM55.80573 99.49668a5.94881 5.94881 0 0 1-9.58819-4.7066V90.99465A9.18453 9.18453 0 1 0 60.6167 95.77811z"/><path fill="#1487c5" d="M49.59258,94.79008a2.57463,2.57463,0,0,0,4.14822,2.03734l8.75057-6.76552H49.59258Z"/></svg>